<svg width="316" height="69" viewBox="0 0 316 69" fill="none" xmlns="http://www.w3.org/2000/svg">
<path d="M72.503 28.648C70.319 28.648 68.663 28.048 67.535 26.848C66.431 25.648 65.879 24.136 65.879 22.312C65.879 21.016 66.143 19.72 66.671 18.424C67.223 17.104 68.003 15.952 69.011 14.968C70.019 13.984 71.195 13.324 72.539 12.988C71.795 12.46 71.243 11.824 70.883 11.08C70.523 10.312 70.343 9.508 70.343 8.668C70.343 7.42 70.679 6.196 71.351 4.996C72.047 3.796 72.995 2.824 74.195 2.08C75.419 1.312 76.763 0.927999 78.227 0.927999C79.739 0.927999 80.975 1.324 81.935 2.116C82.895 2.908 83.375 4.012 83.375 5.428C83.375 6.484 83.111 7.372 82.583 8.092C82.055 8.812 81.431 9.172 80.711 9.172C80.063 9.172 79.499 8.848 79.019 8.2C79.451 8.056 79.823 7.66 80.135 7.012C80.447 6.364 80.603 5.716 80.603 5.068C80.603 4.372 80.411 3.868 80.027 3.556C79.643 3.22 79.175 3.052 78.623 3.052C77.927 3.052 77.291 3.304 76.715 3.808C76.163 4.288 75.731 4.924 75.419 5.716C75.107 6.484 74.951 7.288 74.951 8.128C74.951 9.28 75.251 10.3 75.851 11.188C76.451 12.052 77.363 12.64 78.587 12.952C77.363 13.216 76.259 13.816 75.275 14.752C74.291 15.688 73.523 16.78 72.971 18.028C72.419 19.252 72.143 20.428 72.143 21.556C72.143 22.636 72.419 23.512 72.971 24.184C73.547 24.856 74.411 25.192 75.563 25.192C76.763 25.192 78.011 24.868 79.307 24.22C80.627 23.548 81.599 22.648 82.223 21.52L83.051 21.88C82.115 23.944 80.675 25.588 78.731 26.812C76.787 28.036 74.711 28.648 72.503 28.648ZM84.5984 10H89.7824L89.3144 12.232C90.1304 11.512 90.8624 10.96 91.5104 10.576C92.1824 10.192 92.9024 10 93.6704 10C94.4384 10 95.0384 10.264 95.4704 10.792C95.9264 11.32 96.1544 11.956 96.1544 12.7C96.1544 13.396 95.9264 14.008 95.4704 14.536C95.0144 15.064 94.3784 15.328 93.5624 15.328C93.0344 15.328 92.6744 15.208 92.4824 14.968C92.3144 14.704 92.1824 14.332 92.0864 13.852C92.0144 13.54 91.9424 13.312 91.8704 13.168C91.7984 13.024 91.6664 12.952 91.4744 12.952C90.9704 12.952 90.5384 13.06 90.1784 13.276C89.8424 13.468 89.3984 13.816 88.8464 14.32L85.9664 28H80.7824L84.5984 10ZM101.698 8.056C100.906 8.056 100.234 7.78 99.6815 7.228C99.1295 6.676 98.8535 6.004 98.8535 5.212C98.8535 4.42 99.1295 3.748 99.6815 3.196C100.234 2.62 100.906 2.332 101.698 2.332C102.49 2.332 103.162 2.62 103.714 3.196C104.29 3.748 104.578 4.42 104.578 5.212C104.578 6.004 104.29 6.676 103.714 7.228C103.162 7.78 102.49 8.056 101.698 8.056ZM99.2495 28.216C98.0975 28.216 97.1615 27.856 96.4415 27.136C95.7455 26.416 95.3975 25.336 95.3975 23.896C95.3975 23.296 95.4935 22.516 95.6855 21.556L98.1335 10H103.318L100.726 22.24C100.63 22.6 100.582 22.984 100.582 23.392C100.582 23.872 100.69 24.22 100.906 24.436C101.146 24.628 101.53 24.724 102.058 24.724C102.754 24.724 103.402 24.436 104.002 23.86C104.602 23.26 105.034 22.492 105.298 21.556H106.81C105.922 24.148 104.782 25.912 103.39 26.848C101.998 27.76 100.618 28.216 99.2495 28.216ZM110.143 28.216C108.391 28.216 107.023 27.76 106.039 26.848C105.055 25.912 104.563 24.46 104.563 22.492C104.563 20.836 104.887 19.012 105.535 17.02C106.207 15.028 107.263 13.312 108.703 11.872C110.167 10.408 112.015 9.676 114.247 9.676C115.711 9.676 116.743 9.988 117.343 10.612C117.943 11.236 118.243 12.04 118.243 13.024C118.243 13.888 118.051 14.536 117.667 14.968C117.307 15.4 116.863 15.616 116.335 15.616C115.879 15.616 115.459 15.472 115.075 15.184C115.363 14.416 115.507 13.708 115.507 13.06C115.507 12.076 115.183 11.584 114.535 11.584C113.815 11.584 113.095 12.184 112.375 13.384C111.655 14.56 111.055 15.976 110.575 17.632C110.119 19.264 109.891 20.68 109.891 21.88C109.891 23.872 110.611 24.868 112.051 24.868C112.699 24.868 113.419 24.676 114.211 24.292C115.027 23.884 115.747 23.416 116.371 22.888C115.723 26.44 113.647 28.216 110.143 28.216ZM133.925 28.576C131.213 28.576 129.221 27.892 127.949 26.524C126.677 25.156 126.041 22.888 126.041 19.72C126.041 17.2 126.461 14.488 127.301 11.584C128.165 8.68 129.533 6.196 131.405 4.132C133.301 2.044 135.701 0.999998 138.605 0.999998C140.405 0.999998 141.857 1.396 142.961 2.188C144.065 2.98 144.617 4.192 144.617 5.824C144.617 6.856 144.413 7.672 144.005 8.272C143.597 8.848 142.961 9.136 142.097 9.136C141.233 9.136 140.549 8.824 140.045 8.2C140.477 7.984 140.861 7.552 141.197 6.904C141.533 6.256 141.701 5.584 141.701 4.888C141.701 4.24 141.521 3.712 141.161 3.304C140.825 2.896 140.273 2.692 139.505 2.692C138.233 2.692 137.021 3.568 135.869 5.32C134.717 7.048 133.781 9.232 133.061 11.872C132.365 14.512 132.017 17.056 132.017 19.504C132.017 21.328 132.329 22.72 132.953 23.68C133.577 24.64 134.705 25.12 136.337 25.12C137.753 25.12 139.061 24.808 140.261 24.184C141.461 23.56 142.493 22.672 143.357 21.52L144.185 21.88C143.585 23.392 142.697 24.652 141.521 25.66C140.345 26.668 139.085 27.412 137.741 27.892C136.397 28.348 135.125 28.576 133.925 28.576ZM146.816 28.216C145.664 28.216 144.728 27.856 144.008 27.136C143.312 26.416 142.964 25.336 142.964 23.896C142.964 23.296 143.06 22.516 143.252 21.556L147.104 3.52L152.432 2.8L148.292 22.24C148.196 22.6 148.148 22.984 148.148 23.392C148.148 23.872 148.256 24.22 148.472 24.436C148.712 24.628 149.096 24.724 149.624 24.724C150.32 24.724 150.968 24.436 151.568 23.86C152.168 23.26 152.6 22.492 152.864 21.556H154.376C153.488 24.148 152.348 25.912 150.956 26.848C149.564 27.76 148.184 28.216 146.816 28.216ZM157.17 28.216C155.802 28.216 154.662 27.748 153.75 26.812C152.838 25.876 152.382 24.412 152.382 22.42C152.382 20.644 152.73 18.784 153.426 16.84C154.146 14.872 155.202 13.216 156.594 11.872C158.01 10.504 159.69 9.82 161.634 9.82C162.618 9.82 163.35 9.988 163.83 10.324C164.31 10.66 164.55 11.104 164.55 11.656V11.908L164.946 10H170.13L167.538 22.24C167.442 22.6 167.394 22.984 167.394 23.392C167.394 24.424 167.886 24.94 168.87 24.94C169.542 24.94 170.118 24.628 170.598 24.004C171.102 23.38 171.498 22.564 171.786 21.556H173.298C172.41 24.148 171.306 25.912 169.986 26.848C168.69 27.76 167.382 28.216 166.062 28.216C165.054 28.216 164.238 27.94 163.614 27.388C163.014 26.812 162.654 25.984 162.534 24.904C161.838 25.888 161.058 26.692 160.194 27.316C159.354 27.916 158.346 28.216 157.17 28.216ZM159.51 24.724C160.11 24.724 160.698 24.448 161.274 23.896C161.874 23.32 162.282 22.54 162.498 21.556L164.226 13.42C164.226 13.108 164.106 12.808 163.866 12.52C163.626 12.208 163.254 12.052 162.75 12.052C161.79 12.052 160.926 12.616 160.158 13.744C159.39 14.848 158.79 16.192 158.358 17.776C157.926 19.336 157.71 20.716 157.71 21.916C157.71 23.116 157.878 23.884 158.214 24.22C158.574 24.556 159.006 24.724 159.51 24.724ZM174.535 8.668H179.719L179.143 11.368C180.343 10.336 181.747 9.82 183.355 9.82C184.699 9.82 185.767 10.264 186.559 11.152C187.351 12.04 187.747 13.492 187.747 15.508C187.747 17.404 187.471 19.324 186.919 21.268C186.367 23.188 185.431 24.832 184.111 26.2C182.791 27.544 181.051 28.216 178.891 28.216C177.355 28.216 176.335 27.784 175.831 26.92L173.959 35.704L168.523 37L174.535 8.668ZM177.775 25.084C178.927 25.084 179.875 24.544 180.619 23.464C181.387 22.384 181.939 21.1 182.275 19.612C182.635 18.1 182.815 16.696 182.815 15.4C182.815 13.408 182.215 12.412 181.015 12.412C180.583 12.412 180.139 12.568 179.683 12.88C179.251 13.192 178.867 13.624 178.531 14.176L176.407 24.256C176.599 24.808 177.055 25.084 177.775 25.084ZM192.203 28.216C191.051 28.216 190.115 27.856 189.395 27.136C188.699 26.416 188.351 25.336 188.351 23.896C188.351 23.296 188.447 22.516 188.639 21.556L190.799 11.44H189.611L189.899 10H191.087L192.167 5.032L197.495 4.312L196.271 10H198.431L198.143 11.44H195.983L193.679 22.24C193.583 22.6 193.535 22.984 193.535 23.392C193.535 23.872 193.643 24.22 193.859 24.436C194.099 24.628 194.483 24.724 195.011 24.724C195.707 24.724 196.355 24.436 196.955 23.86C197.555 23.26 197.987 22.492 198.251 21.556H199.763C198.875 24.148 197.735 25.912 196.343 26.848C194.951 27.76 193.571 28.216 192.203 28.216ZM203.492 28.144C201.716 28.144 200.312 27.688 199.28 26.776C198.248 25.864 197.732 24.424 197.732 22.456C197.732 20.824 198.068 19.012 198.74 17.02C199.412 15.028 200.492 13.312 201.98 11.872C203.468 10.408 205.34 9.676 207.596 9.676C210.668 9.676 212.204 11.596 212.204 15.436V15.472C212.276 15.496 212.408 15.508 212.6 15.508C213.392 15.508 214.304 15.304 215.336 14.896C216.368 14.464 217.304 13.948 218.144 13.348L218.468 14.32C217.772 15.064 216.86 15.7 215.732 16.228C214.628 16.732 213.416 17.092 212.096 17.308C211.904 19.492 211.412 21.4 210.62 23.032C209.828 24.664 208.808 25.924 207.56 26.812C206.312 27.7 204.956 28.144 203.492 28.144ZM204.932 24.904C205.508 24.904 206.084 24.58 206.66 23.932C207.236 23.26 207.74 22.36 208.172 21.232C208.604 20.08 208.916 18.808 209.108 17.416C208.46 17.272 208.136 16.768 208.136 15.904C208.136 14.92 208.508 14.272 209.252 13.96C209.204 13.168 209.084 12.628 208.892 12.34C208.7 12.028 208.364 11.872 207.884 11.872C207.092 11.872 206.324 12.448 205.58 13.6C204.836 14.752 204.236 16.132 203.78 17.74C203.324 19.348 203.096 20.764 203.096 21.988C203.096 23.14 203.228 23.92 203.492 24.328C203.756 24.712 204.236 24.904 204.932 24.904ZM226.441 28.216C225.169 28.216 224.245 27.832 223.669 27.064C223.093 26.296 222.805 25.324 222.805 24.148C222.805 23.644 222.865 23.08 222.985 22.456C223.105 21.808 223.225 21.184 223.345 20.584C223.489 19.984 223.585 19.6 223.633 19.432C223.825 18.592 224.005 17.764 224.173 16.948C224.341 16.132 224.425 15.472 224.425 14.968C224.425 13.744 223.993 13.132 223.129 13.132C222.505 13.132 221.953 13.444 221.473 14.068C220.993 14.668 220.609 15.46 220.321 16.444L217.873 28H212.689L216.505 10H221.689L221.293 11.872C222.493 10.528 223.897 9.856 225.505 9.856C226.729 9.856 227.701 10.192 228.421 10.864C229.141 11.536 229.501 12.556 229.501 13.924C229.501 14.62 229.417 15.4 229.249 16.264C229.081 17.104 228.841 18.136 228.529 19.36C228.337 20.104 228.157 20.836 227.989 21.556C227.845 22.252 227.773 22.804 227.773 23.212C227.773 23.692 227.881 24.064 228.097 24.328C228.313 24.592 228.685 24.724 229.213 24.724C229.789 24.724 230.185 24.652 230.401 24.508C230.257 25.732 229.813 26.656 229.069 27.28C228.349 27.904 227.473 28.216 226.441 28.216ZM233.86 8.956C234.364 8.428 234.76 7.936 235.048 7.48C235.336 7.024 235.48 6.652 235.48 6.364C235.48 6.196 235.42 6.04 235.3 5.896C235.204 5.752 235.048 5.596 234.832 5.428C234.496 5.164 234.232 4.888 234.04 4.6C233.848 4.312 233.752 3.928 233.752 3.448C233.752 2.704 233.98 2.104 234.436 1.648C234.892 1.168 235.468 0.927999 236.164 0.927999C236.908 0.927999 237.508 1.168 237.964 1.648C238.444 2.104 238.684 2.704 238.684 3.448C238.684 4.384 238.288 5.416 237.496 6.544C236.728 7.648 235.696 8.632 234.4 9.496L233.86 8.956ZM243.086 28.216C241.934 28.216 240.962 28 240.17 27.568C239.378 27.112 238.79 26.536 238.406 25.84C238.022 25.12 237.83 24.376 237.83 23.608C237.83 22.816 238.022 22.132 238.406 21.556C238.766 20.956 239.21 20.524 239.738 20.26C240.674 18.58 241.49 16.888 242.186 15.184C242.882 13.456 243.542 11.596 244.166 9.604L249.494 8.884C249.614 11.956 249.818 15.28 250.106 18.856C250.226 20.296 250.286 21.34 250.286 21.988C250.286 23.452 249.914 24.652 249.17 25.588C248.426 26.524 247.502 27.196 246.398 27.604C245.318 28.012 244.214 28.216 243.086 28.216ZM241.934 25.372C242.822 25.372 243.566 25.108 244.166 24.58C244.766 24.052 245.066 23.2 245.066 22.024C245.066 21.304 244.994 20.296 244.85 19C244.61 16.264 244.454 14.428 244.382 13.492C243.806 15.388 242.834 17.656 241.466 20.296C242.018 20.584 242.294 21.004 242.294 21.556C242.294 22.012 242.138 22.42 241.826 22.78C241.538 23.14 241.166 23.32 240.71 23.32C240.206 23.32 239.882 23.164 239.738 22.852C239.738 23.716 239.906 24.352 240.242 24.76C240.602 25.168 241.166 25.372 241.934 25.372Z" fill="#FF4C29"/>
<path d="M15.3841 68.24C6.98406 68.24 0.744063 62.2 0.744063 54C0.744063 45.8 6.98406 39.76 15.4241 39.76C19.5041 39.76 23.1841 41.12 25.6641 43.84L23.7841 45.72C21.5041 43.4 18.7041 42.4 15.5041 42.4C8.74406 42.4 3.66406 47.36 3.66406 54C3.66406 60.64 8.74406 65.6 15.5041 65.6C18.7041 65.6 21.5041 64.6 23.7841 62.24L25.6641 64.12C23.1841 66.84 19.5041 68.24 15.3841 68.24ZM34.0941 51.08C35.4141 48.28 38.0941 46.8 41.9741 46.8V49.56C41.7341 49.56 41.4941 49.52 41.2941 49.52C36.8941 49.52 34.2141 52.32 34.2141 57.28V68H31.3741V46.96H34.0941V51.08ZM55.5209 68.2C49.3609 68.2 44.8009 63.72 44.8009 57.48C44.8009 51.24 49.3609 46.8 55.5209 46.8C61.6809 46.8 66.2009 51.24 66.2009 57.48C66.2009 63.72 61.6809 68.2 55.5209 68.2ZM55.5209 65.68C60.0009 65.68 63.3209 62.4 63.3209 57.48C63.3209 52.56 60.0009 49.28 55.5209 49.28C51.0409 49.28 47.6809 52.56 47.6809 57.48C47.6809 62.4 51.0409 65.68 55.5209 65.68ZM77.6391 68.2C74.1591 68.2 70.7991 67.08 69.0791 65.6L70.3591 63.36C72.0391 64.68 74.8791 65.72 77.8391 65.72C81.8391 65.72 83.4791 64.36 83.4791 62.28C83.4791 56.8 69.8391 61.12 69.8391 52.8C69.8391 49.36 72.7991 46.8 78.1591 46.8C80.8791 46.8 83.8391 47.56 85.5991 48.76L84.3591 51.04C82.5191 49.76 80.3191 49.24 78.1591 49.24C74.3591 49.24 72.6791 50.72 72.6791 52.72C72.6791 58.4 86.3191 54.12 86.3191 62.2C86.3191 65.84 83.1191 68.2 77.6391 68.2ZM97.2094 68.2C93.7294 68.2 90.3694 67.08 88.6494 65.6L89.9294 63.36C91.6094 64.68 94.4494 65.72 97.4094 65.72C101.409 65.72 103.049 64.36 103.049 62.28C103.049 56.8 89.4094 61.12 89.4094 52.8C89.4094 49.36 92.3694 46.8 97.7294 46.8C100.449 46.8 103.409 47.56 105.169 48.76L103.929 51.04C102.089 49.76 99.8894 49.24 97.7294 49.24C93.9294 49.24 92.2494 50.72 92.2494 52.72C92.2494 58.4 105.889 54.12 105.889 62.2C105.889 65.84 102.689 68.2 97.2094 68.2ZM113.86 51.08C115.18 48.28 117.86 46.8 121.74 46.8V49.56C121.5 49.56 121.26 49.52 121.06 49.52C116.66 49.52 113.98 52.32 113.98 57.28V68H111.14V46.96H113.86V51.08ZM135.287 68.2C129.127 68.2 124.567 63.72 124.567 57.48C124.567 51.24 129.127 46.8 135.287 46.8C141.447 46.8 145.967 51.24 145.967 57.48C145.967 63.72 141.447 68.2 135.287 68.2ZM135.287 65.68C139.767 65.68 143.087 62.4 143.087 57.48C143.087 52.56 139.767 49.28 135.287 49.28C130.807 49.28 127.447 52.56 127.447 57.48C127.447 62.4 130.807 65.68 135.287 65.68ZM159.008 46.8C164.448 46.8 167.528 49.52 167.528 54.96V68H164.808V64.72C163.528 66.88 161.048 68.2 157.568 68.2C152.808 68.2 149.888 65.72 149.888 62.08C149.888 58.84 151.968 56.12 158.008 56.12H164.688V54.84C164.688 51.24 162.648 49.28 158.728 49.28C156.008 49.28 153.448 50.24 151.728 51.76L150.448 49.64C152.568 47.84 155.688 46.8 159.008 46.8ZM158.008 65.96C161.208 65.96 163.568 64.44 164.688 61.68V58.24H158.088C154.008 58.24 152.688 59.84 152.688 62C152.688 64.44 154.648 65.96 158.008 65.96ZM191.679 38.32H194.519V68H191.799V63.84C190.079 66.68 187.159 68.2 183.679 68.2C177.679 68.2 173.199 63.84 173.199 57.48C173.199 51.12 177.679 46.8 183.679 46.8C187.039 46.8 189.919 48.24 191.679 50.96V38.32ZM183.919 65.68C188.359 65.68 191.719 62.4 191.719 57.48C191.719 52.56 188.359 49.28 183.919 49.28C179.439 49.28 176.079 52.56 176.079 57.48C176.079 62.4 179.439 65.68 183.919 65.68ZM208.069 68.2C204.589 68.2 201.229 67.08 199.509 65.6L200.789 63.36C202.469 64.68 205.309 65.72 208.269 65.72C212.269 65.72 213.909 64.36 213.909 62.28C213.909 56.8 200.269 61.12 200.269 52.8C200.269 49.36 203.229 46.8 208.589 46.8C211.309 46.8 214.269 47.56 216.029 48.76L214.789 51.04C212.949 49.76 210.749 49.24 208.589 49.24C204.789 49.24 203.109 50.72 203.109 52.72C203.109 58.4 216.749 54.12 216.749 62.2C216.749 65.84 213.549 68.2 208.069 68.2ZM238.508 68V42.56H228.668V40H251.308V42.56H241.468V68H238.508ZM261.849 68.2C255.689 68.2 251.129 63.72 251.129 57.48C251.129 51.24 255.689 46.8 261.849 46.8C268.009 46.8 272.529 51.24 272.529 57.48C272.529 63.72 268.009 68.2 261.849 68.2ZM261.849 65.68C266.329 65.68 269.649 62.4 269.649 57.48C269.649 52.56 266.329 49.28 261.849 49.28C257.369 49.28 254.009 52.56 254.009 57.48C254.009 62.4 257.369 65.68 261.849 65.68ZM294.447 46.96H297.287V68H294.567V64.16C293.087 66.72 290.367 68.2 287.007 68.2C281.647 68.2 278.127 65.2 278.127 59.16V46.96H280.967V58.88C280.967 63.36 283.287 65.64 287.287 65.64C291.687 65.64 294.447 62.8 294.447 58V46.96ZM307.961 51.08C309.281 48.28 311.961 46.8 315.841 46.8V49.56C315.601 49.56 315.361 49.52 315.161 49.52C310.761 49.52 308.081 52.32 308.081 57.28V68H305.241V46.96H307.961V51.08Z" fill="#FFF5E0"/>
</svg>
