<svg width="734" height="325" viewBox="0 0 734 325" fill="none" xmlns="http://www.w3.org/2000/svg">
<rect width="738" height="325" fill="#082032" fill-opacity="0.75"/>
<path d="M226.005 80.08C222.365 80.08 219.605 79.08 217.725 77.08C215.885 75.08 214.965 72.56 214.965 69.52C214.965 67.36 215.405 65.2 216.285 63.04C217.205 60.84 218.505 58.92 220.185 57.28C221.865 55.64 223.825 54.54 226.065 53.98C224.825 53.1 223.905 52.04 223.305 50.8C222.705 49.52 222.405 48.18 222.405 46.78C222.405 44.7 222.965 42.66 224.085 40.66C225.245 38.66 226.825 37.04 228.825 35.8C230.865 34.52 233.105 33.88 235.545 33.88C238.065 33.88 240.125 34.54 241.725 35.86C243.325 37.18 244.125 39.02 244.125 41.38C244.125 43.14 243.685 44.62 242.805 45.82C241.925 47.02 240.885 47.62 239.685 47.62C238.605 47.62 237.665 47.08 236.865 46C237.585 45.76 238.205 45.1 238.725 44.02C239.245 42.94 239.505 41.86 239.505 40.78C239.505 39.62 239.185 38.78 238.545 38.26C237.905 37.7 237.125 37.42 236.205 37.42C235.045 37.42 233.985 37.84 233.025 38.68C232.105 39.48 231.385 40.54 230.865 41.86C230.345 43.14 230.085 44.48 230.085 45.88C230.085 47.8 230.585 49.5 231.585 50.98C232.585 52.42 234.105 53.4 236.145 53.92C234.105 54.36 232.265 55.36 230.625 56.92C228.985 58.48 227.705 60.3 226.785 62.38C225.865 64.42 225.405 66.38 225.405 68.26C225.405 70.06 225.865 71.52 226.785 72.64C227.745 73.76 229.185 74.32 231.105 74.32C233.105 74.32 235.185 73.78 237.345 72.7C239.545 71.58 241.165 70.08 242.205 68.2L243.585 68.8C242.025 72.24 239.625 74.98 236.385 77.02C233.145 79.06 229.685 80.08 226.005 80.08ZM246.164 49H254.804L254.024 52.72C255.384 51.52 256.604 50.6 257.684 49.96C258.804 49.32 260.004 49 261.284 49C262.564 49 263.564 49.44 264.284 50.32C265.044 51.2 265.424 52.26 265.424 53.5C265.424 54.66 265.044 55.68 264.284 56.56C263.524 57.44 262.464 57.88 261.104 57.88C260.224 57.88 259.624 57.68 259.304 57.28C259.024 56.84 258.804 56.22 258.644 55.42C258.524 54.9 258.404 54.52 258.284 54.28C258.164 54.04 257.944 53.92 257.624 53.92C256.784 53.92 256.064 54.1 255.464 54.46C254.904 54.78 254.164 55.36 253.244 56.2L248.444 79H239.804L246.164 49ZM274.663 45.76C273.343 45.76 272.223 45.3 271.303 44.38C270.383 43.46 269.923 42.34 269.923 41.02C269.923 39.7 270.383 38.58 271.303 37.66C272.223 36.7 273.343 36.22 274.663 36.22C275.983 36.22 277.103 36.7 278.023 37.66C278.983 38.58 279.463 39.7 279.463 41.02C279.463 42.34 278.983 43.46 278.023 44.38C277.103 45.3 275.983 45.76 274.663 45.76ZM270.583 79.36C268.663 79.36 267.103 78.76 265.903 77.56C264.743 76.36 264.163 74.56 264.163 72.16C264.163 71.16 264.323 69.86 264.643 68.26L268.723 49H277.363L273.043 69.4C272.883 70 272.803 70.64 272.803 71.32C272.803 72.12 272.983 72.7 273.343 73.06C273.743 73.38 274.383 73.54 275.263 73.54C276.423 73.54 277.503 73.06 278.503 72.1C279.503 71.1 280.223 69.82 280.663 68.26H283.183C281.703 72.58 279.803 75.52 277.483 77.08C275.163 78.6 272.863 79.36 270.583 79.36ZM288.739 79.36C285.819 79.36 283.539 78.6 281.899 77.08C280.259 75.52 279.439 73.1 279.439 69.82C279.439 67.06 279.979 64.02 281.059 60.7C282.179 57.38 283.939 54.52 286.339 52.12C288.779 49.68 291.859 48.46 295.579 48.46C298.019 48.46 299.739 48.98 300.739 50.02C301.739 51.06 302.239 52.4 302.239 54.04C302.239 55.48 301.919 56.56 301.279 57.28C300.679 58 299.939 58.36 299.059 58.36C298.299 58.36 297.599 58.12 296.959 57.64C297.439 56.36 297.679 55.18 297.679 54.1C297.679 52.46 297.139 51.64 296.059 51.64C294.859 51.64 293.659 52.64 292.459 54.64C291.259 56.6 290.259 58.96 289.459 61.72C288.699 64.44 288.319 66.8 288.319 68.8C288.319 72.12 289.519 73.78 291.919 73.78C292.999 73.78 294.199 73.46 295.519 72.82C296.879 72.14 298.079 71.36 299.119 70.48C298.039 76.4 294.579 79.36 288.739 79.36ZM328.376 79.96C323.856 79.96 320.536 78.82 318.416 76.54C316.296 74.26 315.236 70.48 315.236 65.2C315.236 61 315.936 56.48 317.336 51.64C318.776 46.8 321.056 42.66 324.176 39.22C327.336 35.74 331.336 34 336.176 34C339.176 34 341.596 34.66 343.436 35.98C345.276 37.3 346.196 39.32 346.196 42.04C346.196 43.76 345.856 45.12 345.176 46.12C344.496 47.08 343.436 47.56 341.996 47.56C340.556 47.56 339.416 47.04 338.576 46C339.296 45.64 339.936 44.92 340.496 43.84C341.056 42.76 341.336 41.64 341.336 40.48C341.336 39.4 341.036 38.52 340.436 37.84C339.876 37.16 338.956 36.82 337.676 36.82C335.556 36.82 333.536 38.28 331.616 41.2C329.696 44.08 328.136 47.72 326.936 52.12C325.776 56.52 325.196 60.76 325.196 64.84C325.196 67.88 325.716 70.2 326.756 71.8C327.796 73.4 329.676 74.2 332.396 74.2C334.756 74.2 336.936 73.68 338.936 72.64C340.936 71.6 342.656 70.12 344.096 68.2L345.476 68.8C344.476 71.32 342.996 73.42 341.036 75.1C339.076 76.78 336.976 78.02 334.736 78.82C332.496 79.58 330.376 79.96 328.376 79.96ZM349.86 79.36C347.94 79.36 346.38 78.76 345.18 77.56C344.02 76.36 343.44 74.56 343.44 72.16C343.44 71.16 343.6 69.86 343.92 68.26L350.34 38.2L359.22 37L352.32 69.4C352.16 70 352.08 70.64 352.08 71.32C352.08 72.12 352.26 72.7 352.62 73.06C353.02 73.38 353.66 73.54 354.54 73.54C355.7 73.54 356.78 73.06 357.78 72.1C358.78 71.1 359.5 69.82 359.94 68.26H362.46C360.98 72.58 359.08 75.52 356.76 77.08C354.44 78.6 352.14 79.36 349.86 79.36ZM367.116 79.36C364.836 79.36 362.936 78.58 361.416 77.02C359.896 75.46 359.136 73.02 359.136 69.7C359.136 66.74 359.716 63.64 360.876 60.4C362.076 57.12 363.836 54.36 366.156 52.12C368.516 49.84 371.316 48.7 374.556 48.7C376.196 48.7 377.416 48.98 378.216 49.54C379.016 50.1 379.416 50.84 379.416 51.76V52.18L380.076 49H388.716L384.396 69.4C384.236 70 384.156 70.64 384.156 71.32C384.156 73.04 384.976 73.9 386.616 73.9C387.736 73.9 388.696 73.38 389.496 72.34C390.336 71.3 390.996 69.94 391.476 68.26H393.996C392.516 72.58 390.676 75.52 388.476 77.08C386.316 78.6 384.136 79.36 381.936 79.36C380.256 79.36 378.896 78.9 377.856 77.98C376.856 77.02 376.256 75.64 376.056 73.84C374.896 75.48 373.596 76.82 372.156 77.86C370.756 78.86 369.076 79.36 367.116 79.36ZM371.016 73.54C372.016 73.54 372.996 73.08 373.956 72.16C374.956 71.2 375.636 69.9 375.996 68.26L378.876 54.7C378.876 54.18 378.676 53.68 378.276 53.2C377.876 52.68 377.256 52.42 376.416 52.42C374.816 52.42 373.376 53.36 372.096 55.24C370.816 57.08 369.816 59.32 369.096 61.96C368.376 64.56 368.016 66.86 368.016 68.86C368.016 70.86 368.296 72.14 368.856 72.7C369.456 73.26 370.176 73.54 371.016 73.54ZM396.058 46.78H404.698L403.738 51.28C405.738 49.56 408.078 48.7 410.758 48.7C412.998 48.7 414.778 49.44 416.098 50.92C417.418 52.4 418.078 54.82 418.078 58.18C418.078 61.34 417.618 64.54 416.698 67.78C415.778 70.98 414.218 73.72 412.018 76C409.818 78.24 406.918 79.36 403.318 79.36C400.758 79.36 399.058 78.64 398.218 77.2L395.098 91.84L386.038 94L396.058 46.78ZM401.458 74.14C403.378 74.14 404.958 73.24 406.198 71.44C407.478 69.64 408.398 67.5 408.958 65.02C409.558 62.5 409.858 60.16 409.858 58C409.858 54.68 408.858 53.02 406.858 53.02C406.138 53.02 405.398 53.28 404.638 53.8C403.918 54.32 403.278 55.04 402.718 55.96L399.178 72.76C399.498 73.68 400.258 74.14 401.458 74.14ZM425.504 79.36C423.584 79.36 422.024 78.76 420.824 77.56C419.664 76.36 419.084 74.56 419.084 72.16C419.084 71.16 419.244 69.86 419.564 68.26L423.164 51.4H421.184L421.664 49H423.644L425.444 40.72L434.324 39.52L432.284 49H435.884L435.404 51.4H431.804L427.964 69.4C427.804 70 427.724 70.64 427.724 71.32C427.724 72.12 427.904 72.7 428.264 73.06C428.664 73.38 429.304 73.54 430.184 73.54C431.344 73.54 432.424 73.06 433.424 72.1C434.424 71.1 435.144 69.82 435.584 68.26H438.104C436.624 72.58 434.724 75.52 432.404 77.08C430.084 78.6 427.784 79.36 425.504 79.36ZM444.321 79.24C441.361 79.24 439.021 78.48 437.301 76.96C435.581 75.44 434.721 73.04 434.721 69.76C434.721 67.04 435.281 64.02 436.401 60.7C437.521 57.38 439.321 54.52 441.801 52.12C444.281 49.68 447.401 48.46 451.161 48.46C456.281 48.46 458.841 51.66 458.841 58.06V58.12C458.961 58.16 459.181 58.18 459.501 58.18C460.821 58.18 462.341 57.84 464.061 57.16C465.781 56.44 467.341 55.58 468.741 54.58L469.281 56.2C468.121 57.44 466.601 58.5 464.721 59.38C462.881 60.22 460.861 60.82 458.661 61.18C458.341 64.82 457.521 68 456.201 70.72C454.881 73.44 453.181 75.54 451.101 77.02C449.021 78.5 446.761 79.24 444.321 79.24ZM446.721 73.84C447.681 73.84 448.641 73.3 449.601 72.22C450.561 71.1 451.401 69.6 452.121 67.72C452.841 65.8 453.361 63.68 453.681 61.36C452.601 61.12 452.061 60.28 452.061 58.84C452.061 57.2 452.681 56.12 453.921 55.6C453.841 54.28 453.641 53.38 453.321 52.9C453.001 52.38 452.441 52.12 451.641 52.12C450.321 52.12 449.041 53.08 447.801 55C446.561 56.92 445.561 59.22 444.801 61.9C444.041 64.58 443.661 66.94 443.661 68.98C443.661 70.9 443.881 72.2 444.321 72.88C444.761 73.52 445.561 73.84 446.721 73.84ZM482.568 79.36C480.448 79.36 478.908 78.72 477.948 77.44C476.988 76.16 476.508 74.54 476.508 72.58C476.508 71.74 476.608 70.8 476.808 69.76C477.008 68.68 477.208 67.64 477.408 66.64C477.648 65.64 477.808 65 477.888 64.72C478.208 63.32 478.508 61.94 478.788 60.58C479.068 59.22 479.208 58.12 479.208 57.28C479.208 55.24 478.488 54.22 477.048 54.22C476.008 54.22 475.088 54.74 474.288 55.78C473.488 56.78 472.848 58.1 472.368 59.74L468.288 79H459.648L466.008 49H474.648L473.988 52.12C475.988 49.88 478.328 48.76 481.008 48.76C483.048 48.76 484.668 49.32 485.868 50.44C487.068 51.56 487.668 53.26 487.668 55.54C487.668 56.7 487.528 58 487.248 59.44C486.968 60.84 486.568 62.56 486.048 64.6C485.728 65.84 485.428 67.06 485.148 68.26C484.908 69.42 484.788 70.34 484.788 71.02C484.788 71.82 484.968 72.44 485.328 72.88C485.688 73.32 486.308 73.54 487.188 73.54C488.148 73.54 488.808 73.42 489.168 73.18C488.928 75.22 488.188 76.76 486.948 77.8C485.748 78.84 484.288 79.36 482.568 79.36ZM494.934 47.26C495.774 46.38 496.434 45.56 496.914 44.8C497.394 44.04 497.634 43.42 497.634 42.94C497.634 42.66 497.534 42.4 497.334 42.16C497.174 41.92 496.914 41.66 496.554 41.38C495.994 40.94 495.554 40.48 495.234 40C494.914 39.52 494.754 38.88 494.754 38.08C494.754 36.84 495.134 35.84 495.894 35.08C496.654 34.28 497.614 33.88 498.774 33.88C500.014 33.88 501.014 34.28 501.774 35.08C502.574 35.84 502.974 36.84 502.974 38.08C502.974 39.64 502.314 41.36 500.994 43.24C499.714 45.08 497.994 46.72 495.834 48.16L494.934 47.26ZM510.311 79.36C508.391 79.36 506.771 79 505.451 78.28C504.131 77.52 503.151 76.56 502.511 75.4C501.871 74.2 501.551 72.96 501.551 71.68C501.551 70.36 501.871 69.22 502.511 68.26C503.111 67.26 503.851 66.54 504.731 66.1C506.291 63.3 507.651 60.48 508.811 57.64C509.971 54.76 511.071 51.66 512.111 48.34L520.991 47.14C521.191 52.26 521.531 57.8 522.011 63.76C522.211 66.16 522.311 67.9 522.311 68.98C522.311 71.42 521.691 73.42 520.451 74.98C519.211 76.54 517.671 77.66 515.831 78.34C514.031 79.02 512.191 79.36 510.311 79.36ZM508.391 74.62C509.871 74.62 511.111 74.18 512.111 73.3C513.111 72.42 513.611 71 513.611 69.04C513.611 67.84 513.491 66.16 513.251 64C512.851 59.44 512.591 56.38 512.471 54.82C511.511 57.98 509.891 61.76 507.611 66.16C508.531 66.64 508.991 67.34 508.991 68.26C508.991 69.02 508.731 69.7 508.211 70.3C507.731 70.9 507.111 71.2 506.351 71.2C505.511 71.2 504.971 70.94 504.731 70.42C504.731 71.86 505.011 72.92 505.571 73.6C506.171 74.28 507.111 74.62 508.391 74.62Z" fill="#FF4C29"/>
<path d="M83.2681 152.48C66.4681 152.48 53.9881 140.4 53.9881 124C53.9881 107.6 66.4681 95.52 83.3481 95.52C91.5081 95.52 98.8681 98.24 103.828 103.68L100.068 107.44C95.5081 102.8 89.9081 100.8 83.5081 100.8C69.9881 100.8 59.8281 110.72 59.8281 124C59.8281 137.28 69.9881 147.2 83.5081 147.2C89.9081 147.2 95.5081 145.2 100.068 140.48L103.828 144.24C98.8681 149.68 91.5081 152.48 83.2681 152.48ZM120.688 118.16C123.328 112.56 128.688 109.6 136.448 109.6V115.12C135.968 115.12 135.488 115.04 135.088 115.04C126.288 115.04 120.928 120.64 120.928 130.56V152H115.248V109.92H120.688V118.16ZM163.542 152.4C151.222 152.4 142.102 143.44 142.102 130.96C142.102 118.48 151.222 109.6 163.542 109.6C175.862 109.6 184.902 118.48 184.902 130.96C184.902 143.44 175.862 152.4 163.542 152.4ZM163.542 147.36C172.502 147.36 179.142 140.8 179.142 130.96C179.142 121.12 172.502 114.56 163.542 114.56C154.582 114.56 147.862 121.12 147.862 130.96C147.862 140.8 154.582 147.36 163.542 147.36ZM207.778 152.4C200.818 152.4 194.098 150.16 190.658 147.2L193.218 142.72C196.578 145.36 202.258 147.44 208.178 147.44C216.178 147.44 219.458 144.72 219.458 140.56C219.458 129.6 192.178 138.24 192.178 121.6C192.178 114.72 198.098 109.6 208.818 109.6C214.258 109.6 220.178 111.12 223.698 113.52L221.218 118.08C217.538 115.52 213.138 114.48 208.818 114.48C201.218 114.48 197.858 117.44 197.858 121.44C197.858 132.8 225.138 124.24 225.138 140.4C225.138 147.68 218.738 152.4 207.778 152.4ZM246.919 152.4C239.959 152.4 233.239 150.16 229.799 147.2L232.359 142.72C235.719 145.36 241.399 147.44 247.319 147.44C255.319 147.44 258.599 144.72 258.599 140.56C258.599 129.6 231.319 138.24 231.319 121.6C231.319 114.72 237.239 109.6 247.959 109.6C253.399 109.6 259.319 111.12 262.839 113.52L260.359 118.08C256.679 115.52 252.279 114.48 247.959 114.48C240.359 114.48 236.999 117.44 236.999 121.44C236.999 132.8 264.279 124.24 264.279 140.4C264.279 147.68 257.879 152.4 246.919 152.4ZM280.219 118.16C282.859 112.56 288.219 109.6 295.979 109.6V115.12C295.499 115.12 295.019 115.04 294.619 115.04C285.819 115.04 280.459 120.64 280.459 130.56V152H274.779V109.92H280.219V118.16ZM323.073 152.4C310.753 152.4 301.633 143.44 301.633 130.96C301.633 118.48 310.753 109.6 323.073 109.6C335.393 109.6 344.433 118.48 344.433 130.96C344.433 143.44 335.393 152.4 323.073 152.4ZM323.073 147.36C332.033 147.36 338.673 140.8 338.673 130.96C338.673 121.12 332.033 114.56 323.073 114.56C314.113 114.56 307.393 121.12 307.393 130.96C307.393 140.8 314.113 147.36 323.073 147.36ZM370.515 109.6C381.395 109.6 387.555 115.04 387.555 125.92V152H382.115V145.44C379.555 149.76 374.595 152.4 367.635 152.4C358.115 152.4 352.275 147.44 352.275 140.16C352.275 133.68 356.435 128.24 368.515 128.24H381.875V125.68C381.875 118.48 377.795 114.56 369.955 114.56C364.515 114.56 359.395 116.48 355.955 119.52L353.395 115.28C357.635 111.68 363.875 109.6 370.515 109.6ZM368.515 147.92C374.915 147.92 379.635 144.88 381.875 139.36V132.48H368.675C360.515 132.48 357.875 135.68 357.875 140C357.875 144.88 361.795 147.92 368.515 147.92ZM435.859 92.64H441.539V152H436.099V143.68C432.659 149.36 426.819 152.4 419.859 152.4C407.859 152.4 398.899 143.68 398.899 130.96C398.899 118.24 407.859 109.6 419.859 109.6C426.579 109.6 432.339 112.48 435.859 117.92V92.64ZM420.339 147.36C429.219 147.36 435.939 140.8 435.939 130.96C435.939 121.12 429.219 114.56 420.339 114.56C411.379 114.56 404.659 121.12 404.659 130.96C404.659 140.8 411.379 147.36 420.339 147.36ZM468.638 152.4C461.678 152.4 454.958 150.16 451.518 147.2L454.078 142.72C457.438 145.36 463.118 147.44 469.038 147.44C477.038 147.44 480.318 144.72 480.318 140.56C480.318 129.6 453.038 138.24 453.038 121.6C453.038 114.72 458.958 109.6 469.678 109.6C475.118 109.6 481.038 111.12 484.558 113.52L482.078 118.08C478.398 115.52 473.998 114.48 469.678 114.48C462.078 114.48 458.718 117.44 458.718 121.44C458.718 132.8 485.998 124.24 485.998 140.4C485.998 147.68 479.598 152.4 468.638 152.4ZM529.516 152V101.12H509.836V96H555.116V101.12H535.436V152H529.516ZM576.198 152.4C563.878 152.4 554.758 143.44 554.758 130.96C554.758 118.48 563.878 109.6 576.198 109.6C588.518 109.6 597.558 118.48 597.558 130.96C597.558 143.44 588.518 152.4 576.198 152.4ZM576.198 147.36C585.158 147.36 591.798 140.8 591.798 130.96C591.798 121.12 585.158 114.56 576.198 114.56C567.238 114.56 560.518 121.12 560.518 130.96C560.518 140.8 567.238 147.36 576.198 147.36ZM641.394 109.92H647.074V152H641.634V144.32C638.674 149.44 633.234 152.4 626.514 152.4C615.794 152.4 608.754 146.4 608.754 134.32V109.92H614.434V133.76C614.434 142.72 619.074 147.28 627.074 147.28C635.874 147.28 641.394 141.6 641.394 132V109.92ZM668.423 118.16C671.063 112.56 676.423 109.6 684.183 109.6V115.12C683.703 115.12 683.223 115.04 682.823 115.04C674.023 115.04 668.663 120.64 668.663 130.56V152H662.983V109.92H668.423V118.16ZM306.477 221.16H329.577V225H300.117V221.94L317.577 204.84C322.317 200.16 323.217 197.34 323.217 194.46C323.217 189.6 319.797 186.6 313.377 186.6C308.457 186.6 304.677 188.1 301.917 191.28L298.857 188.64C302.097 184.8 307.317 182.64 313.737 182.64C322.257 182.64 327.657 186.96 327.657 193.98C327.657 198 326.397 201.6 320.757 207.12L306.477 221.16ZM351.505 225.36C341.785 225.36 334.765 217.38 334.765 204C334.765 190.62 341.785 182.64 351.505 182.64C361.225 182.64 368.305 190.62 368.305 204C368.305 217.38 361.225 225.36 351.505 225.36ZM351.505 221.4C358.825 221.4 363.865 215.22 363.865 204C363.865 192.78 358.825 186.6 351.505 186.6C344.185 186.6 339.145 192.78 339.145 204C339.145 215.22 344.185 221.4 351.505 221.4ZM379.954 221.16H403.054V225H373.594V221.94L391.054 204.84C395.794 200.16 396.694 197.34 396.694 194.46C396.694 189.6 393.274 186.6 386.854 186.6C381.934 186.6 378.154 188.1 375.394 191.28L372.334 188.64C375.574 184.8 380.794 182.64 387.214 182.64C395.734 182.64 401.134 186.96 401.134 193.98C401.134 198 399.874 201.6 394.234 207.12L379.954 221.16ZM422.755 201C431.755 201.48 436.255 206.22 436.255 212.94C436.255 219.96 431.155 225.36 421.015 225.36C414.955 225.36 409.135 223.26 405.895 219.96L407.995 216.54C410.695 219.36 415.555 221.4 421.015 221.4C427.975 221.4 431.815 218.16 431.815 212.94C431.815 207.9 428.275 204.6 420.475 204.6H417.475V201.42L429.115 186.84H407.635V183H434.635V186.06L422.755 201Z" fill="#FFF5E0"/>
</svg>
